<svg id="Layer_1" data-name="Layer 1" xmlns="http://www.w3.org/2000/svg" viewBox="0 0 290 66"><defs><style>.cls-1{font-size:51.65px;fill:#fff;font-family:BerlinSansFB-Reg, Berlin Sans FB;}.cls-2{fill:#33200a;}.cls-3{fill:#b4c1c7;}.cls-4{fill:#c52929;}.cls-5{fill:#c52828;}.cls-6{fill:#885f24;}.cls-7{fill:#875f23;}.cls-8{fill:#fbfcfc;}.cls-9{fill:#c52a2a;}.cls-10{fill:#fcfcfc;}.cls-11{fill:#fefefe;}.cls-12{fill:#fdfdfd;}.cls-13{fill:#70a4b0;}.cls-14{fill:#6ea3af;}.cls-15{fill:#6fa4af;}.cls-16{fill:#c52b2b;}</style></defs><text class="cls-1" transform="translate(69.39 54.59)">ProctoBot</text><path class="cls-2" d="M59.7,22.37c1.66.32,3.33.62,5,1,.67.15,1.69.07,1.55,1.15s.89,2.77-.92,3.58a4,4,0,0,0-.67.51c-1.2,2.59-1.4,5.45-2.14,8.16-.51,1.89-.86,3.9-2.72,5.09a11.88,11.88,0,0,1-5.4,1.9,35.07,35.07,0,0,1-9.49,0,8,8,0,0,1-6.25-5A26.44,26.44,0,0,1,36.5,32c-.16-1.05-.53-1.86-1.77-1.89s-1.78.76-2,1.88a27.52,27.52,0,0,1-2.21,6.94,7.93,7.93,0,0,1-6.65,4.91,31.93,31.93,0,0,1-11.15-.48A10.28,10.28,0,0,1,9.48,41.9c-1.44-1-2-2.56-2.45-4.14-.92-3-1-6.25-2.35-9.16C2.47,27.86,3,26,3.05,24.42c0-.76.57-.88,1.13-1,1.8-.37,3.61-.72,5.42-1.08a29.33,29.33,0,0,1,10.74-1,30.41,30.41,0,0,1,11.12,2.81,7.51,7.51,0,0,0,7.18-.31,13.23,13.23,0,0,1,3.78-1.53,40.61,40.61,0,0,1,16.36-.34A2,2,0,0,1,59.7,22.37Z"/><path class="cls-3" d="M9.63,41.55C14.7,44.12,20.05,43.92,25.42,43a6.38,6.38,0,0,0,4.43-3.68,25.35,25.35,0,0,0,2.56-8.07c.22-1.47,1.07-1.7,2.25-1.67s2.06.27,2.23,1.74a25.66,25.66,0,0,0,2,7c1.2,2.85,3.22,4.71,6.33,5,4.93.44,9.87.74,14.45-1.77a2,2,0,0,1,.5,1.56c0,3.73,0,7.45,0,11.18a1.69,1.69,0,0,1-.21.81c-.66,1.22-.25,2.54-.29,3.82a4.15,4.15,0,0,1-4.54,4.36H14.42c-3.39,0-4.8-1.46-4.85-4.87,0-1.1.31-2.25-.28-3.31-.46-1.55-.15-3.13-.19-4.7-.06-2.25,0-4.51,0-6.76A2.57,2.57,0,0,1,9.63,41.55Z"/><path class="cls-3" d="M59.7,22.37c-2.15-.17-4.29-.37-6.43-.5a31.22,31.22,0,0,0-12.72,1.57,2.68,2.68,0,0,0-.93.38c-2.08,1.94-4.67,1.24-7.08,1.39a1.79,1.79,0,0,1-1-.25c-4.95-3.16-10.47-3.32-16.06-3.05-2,.1-3.95.29-5.92.44.19-2.39,1.57-3.75,3.89-3.76H30.86c2.17,0,2.23-.06,2.24-2.16,0-.57,0-1.14,0-1.7.12-1.72,0-3.08-1.76-4.29-2.4-1.67-2.25-5.1-.1-7.15a5,5,0,0,1,7.25.46,4.74,4.74,0,0,1-.88,7,2.88,2.88,0,0,0-1.43,3.06,12.78,12.78,0,0,1,0,2.55c-.28,1.85.74,2.21,2.25,2.21q8.59,0,17.2,0C58.15,18.6,59.48,19.85,59.7,22.37Z"/><path class="cls-4" d="M60,55.07c-.53-1.26-.22-2.58-.24-3.86-.07-3.23-.06-6.46-.08-9.69,1.89-1.65,2.14-4,2.7-6.23.41-1.63.69-3.3,1.06-4.94a2.43,2.43,0,0,1,1.18-1.76,7.2,7.2,0,0,1,.79,3.6c0,5.77,0,11.55,0,17.33C65.41,53.42,63.88,55,60,55.07Z"/><path class="cls-5" d="M9.63,41.55c0,3.85-.05,7.69-.09,11.53a3.58,3.58,0,0,1-.25,2C5.51,55,4.08,53.51,4.08,49.76c0-5.95,0-11.9,0-17.85a7.64,7.64,0,0,1,.6-3.31c1.6,1.27,1.47,3.2,1.84,4.92A40,40,0,0,0,8,39.24,5.44,5.44,0,0,0,9.63,41.55Z"/><path class="cls-6" d="M9.63,31a4.36,4.36,0,0,1,4.43-4.59,1.5,1.5,0,0,1,1.52.85,1.18,1.18,0,0,1-.69,1.55A3.6,3.6,0,0,0,12.53,32a1.2,1.2,0,0,1-1.47,1.07A1.74,1.74,0,0,1,9.63,31Z"/><path class="cls-7" d="M42.29,31.13c0-2.93,1.76-4.75,4.24-4.69.7,0,1.4,0,1.56.93a1.45,1.45,0,0,1-1,1.75,2.35,2.35,0,0,0-1.76,2c-.1,1.12-.55,2.1-1.83,2S42.17,31.91,42.29,31.13Z"/><path class="cls-8" d="M25.67,47.94h3.68a9.46,9.46,0,0,1,0,6.81H25.66A9.26,9.26,0,0,1,25.67,47.94Z"/><path class="cls-8" d="M40,47.94h3.71a9.57,9.57,0,0,1,0,6.81H40A9.31,9.31,0,0,1,40,47.94Z"/><path class="cls-9" d="M34.68,43.42c-3.73,0-3.72,0-2-3.23a15.25,15.25,0,0,1,.79-1.5c.36-.54.39-1.52,1.19-1.48.61,0,.79.88,1.08,1.41.61,1.09,1.1,2.24,1.73,3.31s.24,1.52-.93,1.49C35.93,43.4,35.31,43.42,34.68,43.42Z"/><path class="cls-10" d="M33.83,51.29a10.69,10.69,0,0,0,0,1.7c.27,1.67-.63,1.85-2,1.79-.91,0-1.17-.38-1.15-1.23.05-1.47.07-2.95,0-4.42-.07-1.25.7-1.19,1.53-1.18s1.68-.15,1.59,1.13C33.79,49.82,33.83,50.56,33.83,51.29Z"/><path class="cls-11" d="M38.57,51.36a9.76,9.76,0,0,0,0,1.53c.31,1.72-.6,2-2,1.88-.78-.06-1.12-.31-1.1-1.11,0-1.25,0-2.5,0-3.75s-.05-2,1.62-2,1.55.85,1.5,1.93C38.55,50.34,38.57,50.85,38.57,51.36Z"/><path class="cls-12" d="M24.27,51.48c0,.56,0,1.13,0,1.69s.28,1.16-.28,1.39-1.08-.15-1.54-.5a3.49,3.49,0,0,1,.8-5.8c.73-.32,1.05-.16,1,.67S24.27,50.63,24.27,51.48Z"/><path class="cls-12" d="M45.05,51.51c0-.74,0-1.47,0-2.2,0-.41-.24-1,.33-1.18s.84.21,1.2.48a3.32,3.32,0,0,1-.31,5.74c-1,.48-1.32.26-1.24-.82C45.09,52.86,45.05,52.18,45.05,51.51Z"/><path class="cls-13" d="M25.67,47.94c0,2.27,0,4.54,0,6.81-.83.09-1.08-.33-1.06-1.11,0-1.53,0-3.06,0-4.6C24.57,48.25,24.86,47.87,25.67,47.94Z"/><path class="cls-14" d="M29.34,54.75c0-2.27,0-4.54,0-6.81.82,0,1.08.36,1.06,1.14,0,1.52,0,3.05,0,4.57C30.43,54.44,30.15,54.83,29.34,54.75Z"/><path class="cls-15" d="M34.17,51.19c0-.85,0-1.7,0-2.55,0-.31.14-.59.48-.59s.47.27.47.58c0,1.81,0,3.63,0,5.45,0,.3-.12.58-.47.59s-.47-.28-.47-.58C34.17,53.12,34.17,52.16,34.17,51.19Z"/><path class="cls-13" d="M40,47.94c0,2.27,0,4.54,0,6.81-.66,0-1.09-.13-1.08-.92,0-1.64,0-3.29,0-4.93C38.89,48.12,39.31,47.93,40,47.94Z"/><path class="cls-14" d="M43.65,54.75q0-3.41,0-6.81c.81,0,1.07.36,1,1.14,0,1.52,0,3.05,0,4.57C44.74,54.44,44.46,54.83,43.65,54.75Z"/><path class="cls-16" d="M34.69,8.84A1.89,1.89,0,0,1,32.6,6.9a2,2,0,0,1,1.92-2.15,2.22,2.22,0,0,1,2.24,2.07A2.11,2.11,0,0,1,34.69,8.84Z"/></svg>